<svg width="251" height="35" viewBox="0 0 251 35" fill="none" xmlns="http://www.w3.org/2000/svg">
<path d="M23.8874 11.7957V34" stroke="black" stroke-width="2.32595"/>
<path d="M20.8581 1.12543C20.8581 1.12543 20.8581 8.55065 20.8581 9.52664C20.8581 10.5026 22.7932 12.6128 24.0259 12.6128C25.2587 12.6128 27.5664 10.6806 27.5664 9.52664C27.5664 8.3726 27.5664 1.12543 27.5664 1.12543" stroke="black" stroke-width="2.32595"/>
<path d="M27.5665 8.32145L20.8584 8.3213" stroke="black" stroke-width="2.32595"/>
<path d="M24.2127 8.28248V1.10804" stroke="black" stroke-width="2.19673"/>
<path d="M14.5787 22.7536C15.1489 22.7536 15.9344 23.2475 16.6373 24.4039C17.31 25.5109 17.7635 27.0156 17.7635 28.5288C17.7635 30.0935 17.4253 31.2608 16.8824 32.013C16.3653 32.7293 15.6182 33.1363 14.5787 33.1363C13.5592 33.1363 12.8299 32.7179 12.3211 31.9733C11.785 31.189 11.4606 29.9851 11.4606 28.4133C11.4606 26.8952 11.8998 25.4204 12.5532 24.3466C13.2326 23.23 14.0003 22.7536 14.5787 22.7536Z" stroke="black" stroke-width="2.32595"/>
<path d="M14.4308 1.25677V23.2308" stroke="black" stroke-width="2.32595"/>
<path d="M6.23351 1V33.8744" stroke="black" stroke-width="2.32595"/>
<path d="M5.73277 1.78309C5.73277 1.78309 2 3.49376 2 8.21187C2 12.93 5.83771 15.3914 5.83771 15.3914" stroke="black" stroke-width="2.32595"/>
<path d="M50.555 34H47.945V4.21H38.27V1.87H60.185V4.21H50.555V34Z" fill="black"/>
<path d="M72.335 1.87C74.765 1.87 76.79 2.17 78.41 2.77C80.03 3.34 81.23 4.27 82.01 5.56C82.82 6.85 83.225 8.56 83.225 10.69C83.225 12.34 82.94 13.75 82.37 14.92C81.8 16.06 81.035 17.005 80.075 17.755C79.115 18.475 78.035 19.03 76.835 19.42L85.16 34H82.055L74.36 20.14H67.34V34H64.73V1.87H72.335ZM72.11 4.165H67.34V17.89H72.875C74.525 17.89 75.905 17.62 77.015 17.08C78.155 16.54 79.025 15.745 79.625 14.695C80.225 13.615 80.525 12.31 80.525 10.78C80.525 9.13 80.21 7.825 79.58 6.865C78.98 5.905 78.05 5.215 76.79 4.795C75.56 4.375 74 4.165 72.11 4.165Z" fill="black"/>
<path d="M109.118 34L105.158 22.93H92.6483L88.6883 34H85.9883L97.8233 1.78H100.253L111.818 34H109.118ZM100.388 8.98C100.298 8.68 100.163 8.275 99.9833 7.765C99.8033 7.255 99.6233 6.715 99.4433 6.145C99.2933 5.575 99.1433 5.065 98.9933 4.615C98.8433 5.125 98.6783 5.65 98.4983 6.19C98.3483 6.73 98.1833 7.24 98.0033 7.72C97.8533 8.2 97.7183 8.635 97.5983 9.025L93.5033 20.59H104.348L100.388 8.98Z" fill="black"/>
<path d="M121.395 34H118.785V4.21H109.11V1.87H131.025V4.21H121.395V34Z" fill="black"/>
<path d="M144.73 34H142.12V4.21H132.445V1.87H154.36V4.21H144.73V34Z" fill="black"/>
<path d="M183.72 17.89C183.72 20.35 183.435 22.585 182.865 24.595C182.295 26.605 181.44 28.36 180.3 29.86C179.16 31.33 177.735 32.47 176.025 33.28C174.315 34.06 172.335 34.45 170.085 34.45C167.805 34.45 165.81 34.045 164.1 33.235C162.39 32.425 160.965 31.285 159.825 29.815C158.685 28.345 157.83 26.605 157.26 24.595C156.72 22.555 156.45 20.305 156.45 17.845C156.45 14.575 156.96 11.71 157.98 9.25C159.03 6.79 160.575 4.87 162.615 3.49C164.655 2.08 167.19 1.375 170.22 1.375C173.13 1.375 175.59 2.05 177.6 3.4C179.61 4.72 181.125 6.61 182.145 9.07C183.195 11.53 183.72 14.47 183.72 17.89ZM159.195 17.845C159.195 20.725 159.585 23.23 160.365 25.36C161.145 27.49 162.345 29.155 163.965 30.355C165.585 31.555 167.64 32.155 170.13 32.155C172.62 32.155 174.66 31.57 176.25 30.4C177.87 29.2 179.055 27.535 179.805 25.405C180.585 23.275 180.975 20.77 180.975 17.89C180.975 13.42 180.075 9.94 178.275 7.45C176.475 4.96 173.79 3.715 170.22 3.715C167.73 3.715 165.66 4.3 164.01 5.47C162.39 6.64 161.175 8.29 160.365 10.42C159.585 12.55 159.195 15.025 159.195 17.845Z" fill="black"/>
<path d="M198.15 1.87C200.58 1.87 202.605 2.17 204.225 2.77C205.845 3.34 207.045 4.27 207.825 5.56C208.635 6.85 209.04 8.56 209.04 10.69C209.04 12.34 208.755 13.75 208.185 14.92C207.615 16.06 206.85 17.005 205.89 17.755C204.93 18.475 203.85 19.03 202.65 19.42L210.975 34H207.87L200.175 20.14H193.155V34H190.545V1.87H198.15ZM197.925 4.165H193.155V17.89H198.69C200.34 17.89 201.72 17.62 202.83 17.08C203.97 16.54 204.84 15.745 205.44 14.695C206.04 13.615 206.34 12.31 206.34 10.78C206.34 9.13 206.025 7.825 205.395 6.865C204.795 5.905 203.865 5.215 202.605 4.795C201.375 4.375 199.815 4.165 197.925 4.165Z" fill="black"/>
<path d="M222.964 34H213.919V32.38L217.114 31.885V4.03L213.919 3.49V1.87H222.964V3.49L219.724 4.03V31.885L222.964 32.38V34Z" fill="black"/>
<path d="M248.205 34L244.245 22.93H231.735L227.775 34H225.075L236.91 1.78H239.34L250.905 34H248.205ZM239.475 8.98C239.385 8.68 239.25 8.275 239.07 7.765C238.89 7.255 238.71 6.715 238.53 6.145C238.38 5.575 238.23 5.065 238.08 4.615C237.93 5.125 237.765 5.65 237.585 6.19C237.435 6.73 237.27 7.24 237.09 7.72C236.94 8.2 236.805 8.635 236.685 9.025L232.59 20.59H243.435L239.475 8.98Z" fill="black"/>
</svg>
