<svg width="100" height="100" viewBox="0 0 100 100" fill="none" xmlns="http://www.w3.org/2000/svg">
<rect width="100" height="100" fill="black"/>
<path d="M67.8048 39.1129V82.5375" stroke="white" stroke-width="2.32595"/>
<path d="M61.8804 18.2453C61.8804 18.2453 61.8804 32.7667 61.8804 34.6754C61.8804 36.584 65.6649 40.7109 68.0757 40.7109C70.4866 40.7109 74.9998 36.9322 74.9998 34.6754C74.9998 32.4185 74.9998 18.2453 74.9998 18.2453" stroke="white" stroke-width="2.32595"/>
<path d="M75 32.3184L61.881 32.3181" stroke="white" stroke-width="2.32595"/>
<path d="M68.4409 32.2422V18.2113" stroke="white" stroke-width="2.19673"/>
<path d="M49.5999 60.5431C50.7151 60.5431 52.2513 61.5091 53.6259 63.7706C54.9416 65.9356 55.8283 68.8782 55.8283 71.8376C55.8283 74.8977 55.1669 77.1805 54.1052 78.6515C53.094 80.0525 51.6329 80.8483 49.5999 80.8483C47.6062 80.8483 46.1799 80.0301 45.1848 78.574C44.1364 77.04 43.502 74.6857 43.502 71.6117C43.502 68.6428 44.3609 65.7586 45.6387 63.6585C46.9675 61.4747 48.4687 60.5431 49.5999 60.5431Z" stroke="white" stroke-width="2.32595"/>
<path d="M49.3108 18.5022V61.4763" stroke="white" stroke-width="2.32595"/>
<path d="M33.2794 18V82.2918" stroke="white" stroke-width="2.32595"/>
<path d="M32.3001 19.5315C32.3001 19.5315 25 22.877 25 32.1041C25 41.3314 32.5053 46.1451 32.5053 46.1451" stroke="white" stroke-width="2.32595"/>
</svg>
